<svg xmlns:xlink="http://www.w3.org/1999/xlink" xmlns="http://www.w3.org/2000/svg" class="icon SVGIcon-icon icon-bot-external" shape-rendering="geometricPrecision" role="img" width="100"  height="100" ><defs><symbol id="icon-bot-external" viewBox="0 0 800 800"><path d="M700,275H450V212.5a100,100,0,0,0,50-86.62h0a100,100,0,0,0-100-100h0a100,100,0,0,0-100,100h0a100,100,0,0,0,50,86.62V275H100A100,100,0,0,0,0,375V700A100,100,0,0,0,100,800H700A100,100,0,0,0,800,700V375A100,100,0,0,0,700,275ZM300,537.5a87.5,87.5,0,0,1-175,0h0a87.5,87.5,0,0,1,175,0Zm375,0a87.5,87.5,0,0,1-175,0h0a87.5,87.5,0,0,1,175,0Z"></path><path d="M725,125a324.1,324.1,0,0,1-9.52,78.19A37.6,37.6,0,0,0,751.85,250h0a37.53,37.53,0,0,0,36.43-28.43,403.72,403.72,0,0,0,0-193.14A37.53,37.53,0,0,0,751.85,0h0a37.59,37.59,0,0,0-36.37,46.81A324.1,324.1,0,0,1,725,125Z"></path><path d="M48.15,250h0a37.59,37.59,0,0,0,36.37-46.81,325.86,325.86,0,0,1,0-156.38A37.6,37.6,0,0,0,48.15,0h0A37.53,37.53,0,0,0,11.72,28.43a403.72,403.72,0,0,0,0,193.14A37.52,37.52,0,0,0,48.15,250Z"></path><path d="M609.2,200h0a37.5,37.5,0,0,0,36.94-30.91,253.73,253.73,0,0,0,0-88.18A37.5,37.5,0,0,0,609.2,50h0a37.53,37.53,0,0,0-36.92,44.18,176,176,0,0,1,0,61.64A37.53,37.53,0,0,0,609.2,200Z"></path><path d="M190.8,200h0a37.53,37.53,0,0,0,36.92-44.18,176,176,0,0,1,0-61.64A37.53,37.53,0,0,0,190.8,50h0a37.5,37.5,0,0,0-36.94,30.91,253.73,253.73,0,0,0,0,88.18A37.5,37.5,0,0,0,190.8,200Z"></path></symbol></defs><use xml:space="http://www.w3.org/1999/xlink" xlink:href="#icon-bot-external" fill="#A3A3AC"></use></svg>