<svg xmlns:xlink="http://www.w3.org/1999/xlink" xmlns="http://www.w3.org/2000/svg" class="icon SVGIcon-icon icon-explore-teams" shape-rendering="geometricPrecision" role="img" width="100"  height="100" ><defs><symbol id="icon-explore-teams" viewBox="0 0 800 800"><path d="M400,0h0C179.09,0,0,179.09,0,400H0A398.6,398.6,0,0,0,105.45,670.63,97.64,97.64,0,0,1,202.5,582.5a22.5,22.5,0,0,1,0,45A52.56,52.56,0,0,0,150,680v32.26a400,400,0,0,0,96.25,57.12V642.5a97.61,97.61,0,0,1,97.5-97.5h112.5a97.61,97.61,0,0,1,97.5,97.5V769.38A400,400,0,0,0,650,712.26V680a52.56,52.56,0,0,0-52.5-52.5,22.5,22.5,0,0,1,0-45,97.64,97.64,0,0,1,97,88.13A398.6,398.6,0,0,0,800,400h0C800,179.09,620.91,0,400,0ZM582.61,217.4a22.53,22.53,0,0,1,14.45-5.26h0a22.5,22.5,0,1,1-14.45,5.26ZM509.14,166a22.58,22.58,0,0,1,19.5-11.25h0a22.5,22.5,0,1,1-11.26,42A22.51,22.51,0,0,1,509.14,166Zm-86.63-23.22a22.46,22.46,0,0,1,22.14-18.59h0a22.5,22.5,0,1,1-22.15,18.59Zm-85.61-9a22.36,22.36,0,0,1,14.52-9.25,22.59,22.59,0,0,1,3.93-.34h0a22.5,22.5,0,1,1-18.45,9.59Zm-87.26,37.64a22.48,22.48,0,0,1,21.72-16.67h0A22.58,22.58,0,0,1,290.86,166a22.5,22.5,0,1,1-41.22,5.42Zm-63.95,48.79a22.48,22.48,0,0,1,17.25-8h0a22.49,22.49,0,0,1,22.4,20.54,22.5,22.5,0,1,1-39.65-12.51Zm97.26,300a97.38,97.38,0,0,1-41.32,9.19,95.55,95.55,0,0,1-9.85-.5,97.49,97.49,0,0,1,17.44-194.18,22.5,22.5,0,0,1-3.53,44.86,52.49,52.49,0,1,0,18.15,99.89A22.5,22.5,0,0,1,283,520.15ZM400,510A110,110,0,1,1,510,400,110.13,110.13,0,0,1,400,510Zm168.22,18.84a95.55,95.55,0,0,1-9.85.5,97.35,97.35,0,0,1-41.32-9.19,22.5,22.5,0,0,1,19.11-40.74,52.5,52.5,0,1,0,18.15-99.89,22.5,22.5,0,0,1-3.53-44.86,97.49,97.49,0,0,1,17.44,194.18Z"></path><circle cx="400" cy="400" r="65"></circle><path d="M508.75,642.5a52.56,52.56,0,0,0-52.5-52.5H343.75a52.56,52.56,0,0,0-52.5,52.5V785A400.55,400.55,0,0,0,400,800h0a400.55,400.55,0,0,0,108.75-15Z"></path></symbol></defs><use xml:space="http://www.w3.org/1999/xlink" xlink:href="#icon-explore-teams" fill="#ECECEE"></use></svg>