<svg xmlns:xlink="http://www.w3.org/1999/xlink" xmlns="http://www.w3.org/2000/svg" class="icon SVGIcon-icon icon-explore-teams-hollow" shape-rendering="geometricPrecision" role="img" width="100"  height="100" ><defs><symbol id="icon-explore-teams-hollow" viewBox="0 0 800 800"><path d="M614.31,220.18a22.46,22.46,0,0,0-17.25-8h0a22.49,22.49,0,1,0,17.25,8Z"></path><path d="M539.88,157.72a22.53,22.53,0,0,0-11.24-3h0A22.58,22.58,0,0,0,509.14,166a22.5,22.5,0,1,0,30.74-8.24Z"></path><path d="M448.58,124.49a22.56,22.56,0,0,0-3.92-.34h0a22.49,22.49,0,1,0,3.92.34Z"></path><path d="M355.35,124.15h0a22.59,22.59,0,0,0-3.93.34,22.52,22.52,0,1,0,3.93-.34Z"></path><path d="M271.36,154.71h0a22.5,22.5,0,1,0,11.26,42A22.51,22.51,0,0,0,290.86,166,22.58,22.58,0,0,0,271.36,154.71Z"></path><path d="M217.39,217.4a22.53,22.53,0,0,0-14.45-5.26h0a22.49,22.49,0,1,0,14.45,5.26Z"></path><path d="M400,0h0C179.09,0,0,179.09,0,400H0C0,620.91,179.09,800,400,800h0c220.91,0,400-179.09,400-400h0C800,179.09,620.91,0,400,0Zm0,755a353.83,353.83,0,0,1-108.75-17V642.5a52.56,52.56,0,0,1,52.5-52.5h112.5a52.56,52.56,0,0,1,52.5,52.5V738A353.83,353.83,0,0,1,400,755ZM727.12,538.17a353.13,353.13,0,0,1-50.73,84.63,97.42,97.42,0,0,0-78.89-40.3,22.5,22.5,0,0,0,0,45,52.55,52.55,0,0,1,47.25,29.64,353.53,353.53,0,0,1-91,63V642.5a97.61,97.61,0,0,0-97.5-97.5H343.75a97.61,97.61,0,0,0-97.5,97.5v77.59a353.53,353.53,0,0,1-91-63A52.55,52.55,0,0,1,202.5,627.5a22.5,22.5,0,0,0,0-45,97.4,97.4,0,0,0-78.89,40.3,355,355,0,1,1,603.51-361,356.32,356.32,0,0,1,0,276.34Z"></path><path d="M400,510A110,110,0,1,1,510,400,110.13,110.13,0,0,1,400,510Zm0-175a65,65,0,1,0,65,65A65.08,65.08,0,0,0,400,335Z"></path><path d="M558.37,529.34a97.38,97.38,0,0,1-41.32-9.19,22.5,22.5,0,0,1,19.11-40.74,52.5,52.5,0,1,0,18.15-99.89,22.5,22.5,0,0,1-3.53-44.86,97.49,97.49,0,0,1,17.44,194.18A95.55,95.55,0,0,1,558.37,529.34Z"></path><path d="M241.63,529.34a95.55,95.55,0,0,1-9.85-.5,97.49,97.49,0,0,1,17.44-194.18,22.5,22.5,0,0,1-3.53,44.86,52.79,52.79,0,0,0-56.31,47,52.51,52.51,0,0,0,74.46,52.86A22.5,22.5,0,0,1,283,520.15,97.38,97.38,0,0,1,241.63,529.34Z"></path></symbol></defs><use xml:space="http://www.w3.org/1999/xlink" xlink:href="#icon-explore-teams-hollow" fill="#A3A3AC"></use></svg>